{"asset":{"version":"2.0","generator":"JARVIS Builder"},"scene":0,"scenes":[{"nodes":[0,1,2,3,4,5,6,7,8,9,10,11,12,13,14,15,16]}],"nodes":[{"name":"Pelvis","mesh":0,"translation":[0,0.45,0],"scale":[0.95,0.45,0.55]},{"name":"Torso","mesh":0,"translation":[0,1.55,0],"scale":[1.35,1.2,0.65]},{"name":"ArcCore","mesh":1,"translation":[0,1.6,0.69],"scale":[0.3,0.3,0.1]},{"name":"Neck","mesh":2,"translation":[0,2.45,0],"scale":[0.28,0.22,0.28]},{"name":"Head","mesh":0,"translation":[0,2.95,0],"scale":[0.72,0.75,0.65]},{"name":"Face","mesh":2,"translation":[0,2.96,0.66],"scale":[0.58,0.46,0.055]},{"name":"EyeL","mesh":1,"translation":[-0.24,3.08,0.73],"scale":[0.14,0.045,0.025]},{"name":"EyeR","mesh":1,"translation":[0.24,3.08,0.73],"scale":[0.14,0.045,0.025]},{"name":"Mouth","mesh":1,"translation":[0,2.84,0.735],"scale":[0.24,0.025,0.02]},{"name":"LeftArm","mesh":0,"translation":[-1.25,1.58,0],"scale":[0.34,1.1,0.4]},{"name":"RightArm","mesh":0,"translation":[1.25,1.58,0],"scale":[0.34,1.1,0.4]},{"name":"LeftForearm","mesh":0,"translation":[-1.38,0.55,0],"scale":[0.29,0.92,0.35]},{"name":"RightForearm","mesh":0,"translation":[1.38,0.55,0],"scale":[0.29,0.92,0.35]},{"name":"LeftLeg","mesh":0,"translation":[-0.46,-0.55,0],"scale":[0.4,1.18,0.46]},{"name":"RightLeg","mesh":0,"translation":[0.46,-0.55,0],"scale":[0.4,1.18,0.46]},{"name":"LeftBoot","mesh":2,"translation":[-0.46,-1.68,0.16],"scale":[0.47,0.34,0.72]},{"name":"RightBoot","mesh":2,"translation":[0.46,-1.68,0.16],"scale":[0.47,0.34,0.72]}],"meshes":[{"name":"ArmorCube","primitives":[{"attributes":{"POSITION":0,"NORMAL":1},"indices":2,"material":0}]},{"name":"GlowCube","primitives":[{"attributes":{"POSITION":0,"NORMAL":1},"indices":2,"material":1}]},{"name":"DarkCube","primitives":[{"attributes":{"POSITION":0,"NORMAL":1},"indices":2,"material":2}]}],"materials":[{"name":"Armor","pbrMetallicRoughness":{"baseColorFactor":[0.04,0.07,0.11,1],"metallicFactor":0.92,"roughnessFactor":0.22}},{"name":"Glow","pbrMetallicRoughness":{"baseColorFactor":[0.0,0.32,0.72,1],"metallicFactor":0.25,"roughnessFactor":0.18},"emissiveFactor":[0.0,0.75,1.0]},{"name":"Dark","pbrMetallicRoughness":{"baseColorFactor":[0.005,0.008,0.012,1],"metallicFactor":0.65,"roughnessFactor":0.12}}],"buffers":[{"uri":"data:application/octet-stream;base64,","byteLength":968}],"bufferViews":[{"buffer":0,"byteOffset":0,"byteLength":288,"target":34962},{"buffer":0,"byteOffset":288,"byteLength":288,"target":34962},{"buffer":0,"byteOffset":576,"byteLength":72,"target":34963},{"buffer":0,"byteOffset":648,"byteLength":20},{"buffer":0,"byteOffset":668,"byteLength":80},{"buffer":0,"byteOffset":748,"byteLength":80},{"buffer":0,"byteOffset":828,"byteLength":80},{"buffer":0,"byteOffset":908,"byteLength":60}],"accessors":[{"bufferView":0,"componentType":5126,"count":24,"type":"VEC3","min":[-0.5,-0.5,-0.5],"max":[0.5,0.5,0.5]},{"bufferView":1,"componentType":5126,"count":24,"type":"VEC3"},{"bufferView":2,"componentType":5123,"count":36,"type":"SCALAR"},{"bufferView":3,"componentType":5126,"count":5,"type":"SCALAR","min":[0],"max":[4]},{"bufferView":4,"componentType":5126,"count":5,"type":"VEC4"},{"bufferView":5,"componentType":5126,"count":5,"type":"VEC4"},{"bufferView":6,"componentType":5126,"count":5,"type":"VEC4"},{"bufferView":7,"componentType":5126,"count":5,"type":"VEC3"}],"animations":[{"name":"JarvisIdle","samplers":[{"input":3,"output":4,"interpolation":"LINEAR"},{"input":3,"output":5,"interpolation":"LINEAR"},{"input":3,"output":6,"interpolation":"LINEAR"},{"input":3,"output":7,"interpolation":"LINEAR"}],"channels":[{"sampler":0,"target":{"node":4,"path":"rotation"}},{"sampler":1,"target":{"node":9,"path":"rotation"}},{"sampler":2,"target":{"node":10,"path":"rotation"}},{"sampler":3,"target":{"node":2,"path":"scale"}}]}]}